<?xml version="1.0" standalone="no"?>
<!DOCTYPE svg PUBLIC "-//W3C//DTD SVG 1.1//EN" "http://www.w3.org/Graphics/SVG/1.1/DTD/svg11.dtd" >
<svg xmlns="http://www.w3.org/2000/svg">
<metadata>
This is a custom SVG webfont generated by Font Squirrel.
Copyright   : Copyright c 2007 by Robby Woodard All rights reserved
Designer    : Robby Woodard
</metadata>
<defs>
<font id="webfont5iQoAja3" horiz-adv-x="1124" >
<font-face units-per-em="2048" ascent="1536" descent="-512" />
<missing-glyph horiz-adv-x="448" />
<glyph unicode=" "  horiz-adv-x="448" />
<glyph unicode="&#x09;" horiz-adv-x="448" />
<glyph unicode="&#xa0;" horiz-adv-x="448" />
<glyph unicode="!" horiz-adv-x="565" d="M123 0v287h319v-287h-319zM123 -47h364v334h80v-412h-444v78zM123 332v78h364v901h80v-979h-444zM123 457v854h319v-854h-319z" />
<glyph unicode="&#x22;" horiz-adv-x="878" d="M123 858v78h272v-78h-272zM123 983v512h272v-512h-272zM463 858v78h317v559h80v-637h-397zM463 983v512h272v-512h-272z" />
<glyph unicode="#" horiz-adv-x="1206" d="M82 319v80h115v-80h-115zM82 444v185h162v170h-162v184h162v328h250v-328h176v328h250v-328h163v-184h-163v-170h163v-185h-163v-319h-250v319h-176v-319h-250v319h-162zM82 676v76h115v-76h-115zM244 0v78h295v321h84v-399h-379zM494 629h176v170h-176v-170zM539 676v76 h84v-76h-84zM539 1028v283h84v-283h-84zM670 0v78h295v321h163v230h80v-310h-164v-319h-374zM965 676v76h163v231h80v-307h-243zM965 1028v283h79v-283h-79z" />
<glyph unicode="$" horiz-adv-x="1001" d="M82 901v246q0 70 47 117t117 47h94v184h270v-184h213v-185h-444v-204h315q70 0 117 -47.5t47 -116.5v-266q0 -68 -47 -115q-49 -49 -117 -49h-84v-203h-270v203h-223v184h444v225h-315q-68 0 -117 49q-47 47 -47 115zM117 203v78h176v-78h-176zM141 711q47 -27 105 -27 h268v-80h-190q-140 1 -183 107zM340 0v78h315v203h39q86 0 147.5 61t61.5 150v258q0 51 -26 104q106 -45 106 -182v-180q0 -106 -72 -191q-70 -82 -176 -98v-203h-395zM424 961v118h444v232h80v-310h-446v-40h-78zM655 1356v139h80v-139h-80z" />
<glyph unicode="%" horiz-adv-x="2004" d="M82 901v246q0 70 47 117t117 47h438q68 0 117 -49q47 -47 47 -115v-246q0 -70 -47 -117t-117 -47h-438q-68 0 -117 49q-47 47 -47 115zM158 719q47 -29 102 -29h424q63 0 123 41l-62 -119h-405q-125 1 -182 107zM379 922h172v204h-172v-204zM424 967v112h80v-112h-80z M426 -125l41 78h385l233 457v-172l-186 -363h-473zM481 0l678 1311h340l-676 -1311h-342zM866 1251q106 -61 107 -184v-16l-80 -152v248q0 57 -27 104zM1139 164v246q0 72 45 116q47 47 112 47h439q72 0 116 -49q47 -51 47 -114v-246q0 -68 -49 -117q-47 -47 -114 -47h-439 q-72 0 -112 47q-45 51 -45 117zM1174 580l376 731h90l-358 -693q-55 -1 -108 -38zM1198 -18q47 -29 98 -29h422q88 0 149.5 61.5t61.5 149.5v246q0 57 -28 104q106 -61 106 -184v-170q0 -121 -82 -203t-201 -82h-350q-115 1 -176 107zM1430 184h172v205h-172v-205zM1475 229 v113h81v-113h-81z" />
<glyph unicode="&#x26;" horiz-adv-x="1452" d="M82 328v164q0 139 94 233t234 94h147v328q0 70 47 117t117 47h438q68 0 117 -49q47 -47 47 -115v-348q0 -70 -47 -117t-117 -47h-307v-451h57q49 0 86 41t37 103v84h297v-84q0 -137 -94 -232q-96 -96 -234 -96h-149v-246h-295v246h-147q-137 0 -232 94q-96 97 -96 234z M195 27q101 -74 221 -74h94v-78h-14q-156 0 -265 109q-21 21 -36 43zM379 328q0 -59 37 -103q35 -41 86 -41h55v451h-55q-49 0 -86 -41t-37 -102v-164zM432 328v164q0 43 20.5 69.5t55.5 26.5h2v-359h-2q-33 0 -55 29q-21 27 -21 70zM557 -293h340v246h104q157 0 265 110 q109 109 108 265v84h80v-84q0 -184 -133 -322q-131 -131 -320 -131h-24v-246h-420v78zM852 819h174v307h-174v-307zM897 229v359h260q86 0 147.5 61.5t61.5 149.5v348q0 57 -27 104q106 -61 107 -184v-268q0 -115 -84 -205q-90 -84 -205 -84h-180v-229q-25 -51 -68 -52h-12z M897 864v215h80v-215h-80z" />
<glyph unicode="'" horiz-adv-x="536" d="M123 858v78h315v559h80v-637h-395zM123 983v512h270v-512h-270z" />
<glyph unicode="(" horiz-adv-x="755" d="M123 -82v1249q0 135 96 231.5t232 96.5h182v-184h-58q-55 0 -92 -37t-37 -94v-1274q0 -55 37 -92q39 -39 92 -39h58v-185h-182q-135 0 -231.5 96.5t-96.5 231.5zM229 -383q102 -74 222 -74h227v232h80v-310h-230q-188 0 -299 152zM492 -94v1274q0 35 24.5 59.5t58.5 24.5 h103v231h80v-309h-156q-31 0 -31 -29v-1337q-37 4 -57 26q-22 27 -22 60z" />
<glyph unicode=")" horiz-adv-x="694" d="M61 -225h58q55 0 92 36.5t37 94.5v1274q0 57 -37 94t-92 37h-58v184h183q135 0 231 -96t96 -232v-1249q0 -135 -96 -231.5t-231 -96.5h-183v185zM61 -457h183q158 0 264 109q109 113 108 266v1249q0 121 -71 222q152 -111 151 -302v-1169q0 -188 -133 -321 q-131 -131 -319 -132h-183v78zM61 1186v78h58q35 0 57 -23q22 -22 25 -55h-4h-136z" />
<glyph unicode="*" horiz-adv-x="858" d="M63 1071l146 86l-146 82l101 172l145 -86v170h197v-170l143 86l101 -172l-146 -82l146 -86l-101 -172l-143 86v-168h-197v168l-145 -86zM309 692v78h244v133l78 -47v-164h-322zM553 1407v88h78v-41zM690 874l101 175l67 -39l-100 -174zM692 1432l70 38l160 -278l-144 -82 l-80 45l115 66z" />
<glyph unicode="+" horiz-adv-x="1062" d="M123 299v78h233v-78h-233zM123 424v256h280v303h259v-303h278v-256h-278v-299h-259v299h-280zM403 0v78h304v299h278v303h80v-381h-279v-299h-383zM707 725v258h79v-258h-79z" />
<glyph unicode="," horiz-adv-x="612" d="M-39 -535l25 78h354l231 744h84l-256 -822h-438zM0 -410l219 697h305l-217 -697h-307z" />
<glyph unicode="-" horiz-adv-x="714" d="M102 346v78h535v252h80v-330h-615zM102 471v205h490v-205h-490z" />
<glyph unicode="." horiz-adv-x="612" d="M143 0v287h326v-287h-326zM143 -47h371v334h80v-412h-451v78z" />
<glyph unicode="/" horiz-adv-x="1103" d="M6 -125l41 78h367l698 1358h90l-741 -1436h-455zM66 0l677 1311h318l-676 -1311h-319z" />
<glyph unicode="0" horiz-adv-x="1226" d="M123 328v655q0 135 96 231.5t232 96.5h325q135 0 231.5 -96.5t96.5 -231.5v-655q0 -135 -96.5 -231.5t-231.5 -96.5h-325q-137 0 -232 94q-96 97 -96 234zM229 27q102 -74 222 -74h325q154 0 264.5 110.5t110.5 264.5v655q0 120 -74 221q152 -102 152 -301v-586 q0 -190 -137 -317q-133 -125 -328 -125h-234q-90 0 -178 39q-84 37 -123 113zM444 334q0 -63 37 -106.5t92 -43.5h80q55 0 92 43q39 45 39 107v641q0 66 -39 106q-41 45 -92 45h-80q-53 0 -92 -45q-37 -43 -37 -106v-641zM492 334v641q0 43 24.5 73.5t56.5 30.5h80 q66 0 84 -78h-139q-29 0 -29 -34v-738q-37 4 -55 31q-22 33 -22 74z" />
<glyph unicode="1" horiz-adv-x="673" d="M47 1001v78h117v-78h-117zM47 1126v185h483v-1311h-319v1126h-164zM211 -47h364v1358h80v-1436h-444v78z" />
<glyph unicode="2" horiz-adv-x="1144" d="M123 0v438q0 137 94 232q96 96 234 96h100q55 0 92 43q39 45 39 106v60q0 66 -39 106q-41 45 -92 45h-389v185h512q135 0 231 -96.5t96 -231.5v-78q0 -135 -96 -231t-231 -96h-103q-55 0 -92 -41q-37 -40 -37 -105v-246h519v-186h-838zM123 -47h883v233h79v-311h-962v78z M162 1001v78h389q29 0 51 -22t31 -56h-4h-467zM485 231v201q0 43 25 70q25 29 61 28h103q154 0 264 111q109 109 109 264v78q0 125 -72 221q22 -15 43 -37q109 -109 108 -264q0 -182 -135 -317t-317 -133h-80q-29 0 -29 -31v-191h-80z" />
<glyph unicode="3" horiz-adv-x="1062" d="M102 0v184h387q53 0 91 43q39 45 38 109v151q0 61 -38.5 106.5t-90.5 45.5h-387v180h422v307h-422v185h560q72 0 116 -49q47 -51 47 -115v-420q115 -102 115 -248v-151q0 -135 -96 -231.5t-232 -96.5h-510zM102 -47h510q152 0 262.5 110.5t110.5 264.5v151 q0 158 -115 269v399q0 51 -26 104q106 -61 106 -184v-297q115 -127 115 -291v-151q0 -186 -133 -319.5t-322 -133.5h-508v78zM102 514v78h387q61 0 80 -78h-2h-465zM102 1001v78h375v-78h-375z" />
<glyph unicode="4" horiz-adv-x="1349" d="M-35 182l41 78h690v-78h-731zM20 307l521 1004h344l-424 -819h282v327h320v-327h164v-185h-164v-307h-320v307h-723zM537 537l159 311v-172l-71 -139h-88zM707 864l229 447h90l-231 -447h-88zM743 -47h365v307h164v232h80v-310h-164v-307h-445v78zM1108 537v282h80v-282 h-80z" />
<glyph unicode="5" horiz-adv-x="1083" d="M102 0v184h408q55 0 92 43q39 45 39 107v149q0 66 -39 107q-41 45 -92 45h-408v676h807v-185h-489v-307h213q137 0 233 -96q94 -94 95 -231v-164q0 -137 -95 -232q-96 -96 -233 -96h-531zM102 -47h531q156 0 266 110q109 109 109 265v164q0 120 -74 221q152 -96 151 -301 v-84q0 -188 -131 -322q-133 -131 -319 -131h-533v78zM102 510v78h408q33 0 53 -21q23 -23 29 -57h-2h-488zM467 864v215h489v232h78v-310h-489v-137h-78z" />
<glyph unicode="6" horiz-adv-x="1206" d="M102 328v655q0 135 96.5 231.5t231.5 96.5h578v-185h-455q-51 0 -90 -45t-39 -106v-158h330q135 0 231 -96t96 -232v-161q0 -135 -96 -231.5t-231 -96.5h-324q-137 0 -231 94q-97 97 -97 234zM209 27q101 -74 221 -74h324q154 0 264 110.5t110 264.5v161q0 120 -73 222 q152 -96 151 -289v-94q4 -188 -131 -320q-137 -133 -321 -133h-262q-211 0 -283 152zM424 334q0 -61 39 -107q37 -43 90 -43h78q57 0 94 43t37 107v147q0 66 -39 107q-41 45 -92 45h-207v-299zM471 334v252h160q33 0 53 -21q23 -23 29 -57h-2h-162v-277q-37 4 -57.5 31 t-20.5 72zM471 862v113q0 45 23 74q25 31 59 30h502v232h78v-310h-553q-31 0 -31 -32v-107h-78z" />
<glyph unicode="7" horiz-adv-x="1267" d="M82 1001v78h594l-41 -78h-553zM82 1126v185h1108l-676 -1311h-344l580 1126h-668zM113 -125l41 78h389l700 1358h88l-739 -1436h-479z" />
<glyph unicode="8" horiz-adv-x="1206" d="M102 328v164q0 119 74 206v449q0 70 47 117t117 47h508q68 0 117 -49q47 -47 47 -115v-449q74 -96 73 -206v-164q0 -135 -96 -231.5t-231 -96.5h-328q-135 0 -231.5 96.5t-96.5 231.5zM209 27q101 -74 221 -74h328q157 0 264 110q109 113 108 265v164q0 123 -73 221v434 q0 59 -27 104q106 -61 107 -184v-340q74 -113 73 -235v-164q0 -186 -133 -319.5t-319 -133.5h-250q-188 0 -299 152zM424 336q0 -61 39 -106.5t90 -45.5h82q51 0 90 45t39 107v153q0 61 -39 106.5t-90 45.5h-82q-53 0 -90 -43q-39 -45 -39 -109v-153zM469 336v153 q0 43 24.5 74t59.5 31h82q31 0 51 -21q23 -23 29 -57h-2h-123q-41 0 -41 -41v-244q-39 4 -57 31q-23 33 -23 74zM477 819h234v307h-234v-307zM522 864v215h142v-78h-62v-137h-80z" />
<glyph unicode="9" horiz-adv-x="1206" d="M102 821v162q0 139 94.5 233.5t233.5 94.5h326q137 0 231 -94q96 -96 96 -234v-655q0 -135 -96 -231.5t-231 -96.5h-580v184h457q55 0 92 43t37 109v158h-332q-137 0 -233 96q-95 94 -95 231zM176 -47h580q158 0 264 110q109 113 108 265v655q0 125 -71 221q2 -2 41 -35 q111 -111 110 -266v-575q0 -186 -133 -319.5t-319 -133.5h-580v78zM207 520q100 -74 223 -74h285v-77h-207q-157 0 -264 110q-2 2 -6.5 7.5t-13.5 14.5t-17 19zM422 829q0 -66 39 -106q41 -45 92 -45h209v299q0 63 -37 106t-92 43h-80q-55 0 -92 -43q-39 -45 -39 -106v-148z M467 829v148q0 41 24.5 71.5t61.5 30.5h80q29 0 51.5 -22.5t28.5 -55.5h-127q-39 0 -39 -43v-233q-39 4 -58 31q-22 32 -22 73z" />
<glyph unicode=":" horiz-adv-x="653" d="M164 0v78h371v334h79v-412h-450zM164 125v287h325v-287h-325zM164 492v77h371v334h79v-411h-450zM164 616v287h325v-287h-325z" />
<glyph unicode=";" horiz-adv-x="653" d="M-45 -246l209 656h305l-207 -656h-307zM-45 -371l25 78h317l221 703h84l-246 -781h-401zM162 492v77h373v334h79v-411h-452zM162 616v287h327v-287h-327z" />
<glyph unicode="&#x3c;" horiz-adv-x="940" d="M0 653l666 666l174 -182l-475 -484l475 -481l-174 -184zM428 653l477 484l58 -56l-478 -483zM666 -78l237 250l58 -55l-238 -252z" />
<glyph unicode="=" horiz-adv-x="1083" d="M123 174v78h862v303h80v-381h-942zM123 299v256h817v-256h-817zM123 602v78h862v303h80v-381h-942zM123 727v256h817v-256h-817z" />
<glyph unicode="&#x3e;" horiz-adv-x="1024" d="M102 172l478 481l-478 484l174 182l668 -666l-668 -665zM276 -76l732 729l57 -57l-731 -729z" />
<glyph unicode="?" horiz-adv-x="940" d="M123 1001v78h340v-78h-340zM123 1126v185h551q68 0 117 -49q47 -47 47 -115v-350q0 -68 -50 -115q-51 -47 -114 -47h-144v-176h-325v196q0 63 47 115q47 49 115 49h143v307h-387zM205 0v287h325v-287h-325zM205 -47h370v334h80v-412h-450v78zM205 334v80h370v174h99 q86 0 147.5 61.5t61.5 147.5v350q0 57 -27 104q106 -61 107 -184v-270q0 -121 -84 -203q-88 -84 -207 -84h-17v-176h-450z" />
<glyph unicode="@" horiz-adv-x="1902" d="M102 328v491q0 205 143.5 348.5t348.5 143.5h838q137 0 231 -94q96 -96 96 -234v-573q0 -66 -49 -115t-115 -49h-860q-68 0 -117 49q-47 47 -47 115v327q0 70 47.5 117t116.5 47h563v-471h175v553q0 71 -50 117q-51 47 -116 47h-590q-135 0 -231.5 -96.5t-96.5 -231.5 v-489q0 -137 96.5 -233.5t231.5 -96.5h1040v-164h-1163q-205 0 -348.5 143.5t-143.5 348.5zM256 -90q150 -121 338 -121h1208v211h80v-289h-1216q-127 0 -244 53q-115 54 -166 146zM434 330v489q0 121 82 201t201 80h590q88 0 112 -78h-702q-84 0 -143.5 -59.5t-59.5 -143.5 v-614q0 -45 12 -88l-10 12q-82 84 -82 201zM633 227q47 -29 102 -28h860q86 0 147.5 61.5t61.5 149.5v573q0 125 -71 221q74 -39 112 -119q39 -78 39 -176v-499q0 -115 -84 -203q-84 -86 -205 -86h-780q-125 0 -182 106zM817 430h215v287h-215v-287zM864 475v195h123v-78 h-45v-117h-78zM1346 475v426h79v-426h-79z" />
<glyph unicode="A" horiz-adv-x="1226" d="M143 0v983q0 137 97 234q94 94 231 94h285q137 0 231 -94q96 -96 96 -234v-983h-321v471h-297v-471h-322zM143 -47h367v471h205v-78h-125v-471h-447v78zM465 655h297v320q0 70 -35 110.5t-94 40.5h-39q-59 0 -94 -41t-35 -110v-320zM510 700v275q0 104 84 104h39 q37 0 59 -22q16 -23 21 -56h-74q-49 0 -49 -57v-244h-80zM762 -47h366v1030q0 127 -73 223q29 -20 41 -35q113 -113 112 -266v-1030h-446v78z" />
<glyph unicode="B" horiz-adv-x="1247" d="M143 0v1311h703q68 0 117 -49q47 -47 47 -115v-430q115 -102 114 -248v-141q0 -135 -96 -231.5t-231 -96.5h-654zM143 -47h654q157 0 264 110q109 113 108 265v141q0 158 -114 268v410q0 63 -27 102q106 -57 107 -182v-301q115 -127 114 -303v-139q0 -176 -127 -314 q-127 -135 -321 -135h-658v78zM465 184h209q53 0 92 45q37 43 37 107v141q0 63 -37 107q-39 45 -92 45h-209v-445zM465 809h244v317h-244v-317zM510 229v353h164q31 0 51 -21q23 -23 29 -57h-2h-162v-275h-80zM510 854v225h152v-78h-72v-147h-80z" />
<glyph unicode="C" horiz-adv-x="1185" d="M123 492v491q0 137 96 234q94 94 232 94h374q98 0 168 -70t70 -168v-172h-322v225h-168q-53 0 -92 -45q-37 -43 -37 -106v-483q0 -131 84 -218q86 -90 207 -90h328v-184h-449q-203 0 -348 145q-143 144 -143 347zM276 74q145 -121 338 -121h494v231h80v-309h-496 q-119 0 -235 53q-115 54 -181 146zM489 492v483q0 43 25 73.5t59 30.5h121v-78h-88q-37 0 -37 -36v-551q0 -82 41 -148q-121 79 -121 226zM741 776v78h367v219q0 86 -47 158q127 -86 127 -236v-219h-447z" />
<glyph unicode="D" horiz-adv-x="1247" d="M143 0v1311h490q205 0 348 -143.5t143 -348.5v-327q0 -205 -143 -348.5t-348 -143.5h-490zM143 -45h490q223 0 379 156q158 158 157 381v327q0 186 -120 338q96 -70 149 -182q51 -109 51 -234v-258q0 -254 -178 -432q-176 -176 -432 -176h-496v80zM463 184h47 q121 0 207 90.5t86 217.5v327q0 127 -86 217t-207 90h-47v-942zM508 231q2 425 1.5 637.5t-1.5 212.5h2q102 0 174 -75l31 -41q-59 37 -127 36v-757q-37 -12 -78 -13h-2z" />
<glyph unicode="E" horiz-adv-x="1062" d="M143 164v1147h777v-185h-455v-348h455v-184h-455v-410h455v-184h-613q-70 0 -117 47t-47 117zM203 -18q47 -29 104 -29h658v231h79v-309h-659q-121 1 -182 107zM510 229v318h455v231h79v-309h-454v-240h-80zM510 823v256h455v232h79v-310h-454v-178h-80z" />
<glyph unicode="F" horiz-adv-x="1062" d="M143 0v1311h777v-185h-455v-348h455v-184h-455v-594h-322zM143 -47h367v594h455v231h79v-309h-454v-594h-447v78zM510 823v256h455v232h79v-310h-454v-178h-80z" />
<glyph unicode="G" horiz-adv-x="1206" d="M123 328v491q0 203 145 348q143 143 346 144h449v-185h-326q-121 0 -207 -90t-86 -217v-483q0 -63 37 -107q39 -45 92 -45h168v471h322v-655h-612q-137 0 -232 94q-96 97 -96 234zM227 27q100 -74 224 -74h657v702h80v-780h-674q-189 0 -287 152zM489 336v483 q0 98 72 180q70 80 176 80h371v232h80v-310h-451q-70 0 -119 -53q-49 -51 -49 -125v-592q-39 4 -57 31q-23 33 -23 74z" />
<glyph unicode="H" horiz-adv-x="1226" d="M143 0v1311h322v-533h297v533h321v-1311h-321v594h-297v-594h-322zM143 -47h367v594h205v-78h-125v-594h-447v78zM510 823v488h80v-488h-80zM762 -47h366v1358h80v-1436h-446v78z" />
<glyph unicode="I" horiz-adv-x="612" d="M145 0v1311h322v-1311h-322zM145 -47h367v1358h80v-1436h-447v78z" />
<glyph unicode="J" horiz-adv-x="776" d="M82 0v184h98q53 0 90 37q39 39 39 94v996h324v-983q0 -135 -96.5 -231.5t-231.5 -96.5h-223zM82 -47h223q154 0 264 110q109 109 109 265v983h80v-983q0 -186 -133 -319.5t-320 -133.5h-223v78z" />
<glyph unicode="K" horiz-adv-x="1288" d="M143 0v1311h322v-533h102l281 533h340l-289 -545q98 -31 164 -117q63 -84 63 -194v-455h-321v440q0 63 -37 107q-39 45 -92 45h-211v-592h-322zM143 -47h367v592h166q31 0 51 -21q23 -23 29 -57h-2h-164v-592h-447v78zM510 823v488h80v-391l-51 -97h-29zM805 -47h366v502 q0 102 -57 194t-151 137l278 525h90l-264 -496q88 -66 135 -158q49 -95 49 -202v-580h-446v78z" />
<glyph unicode="L" horiz-adv-x="901" d="M143 0v1311h322v-1127h334v-184h-656zM143 -47h701v231h80v-309h-781v78zM510 229v1082h80v-1082h-80z" />
<glyph unicode="M" horiz-adv-x="1841" d="M143 0v1311h1227q135 0 231.5 -96.5t96.5 -231.5v-983h-322v995q0 61 -39 106.5t-90 45.5h-168v-1147h-321v1147h-293v-1147h-322zM143 -47h367v1147h201v-78h-121v-1147h-447v78zM758 -47h366v1147h123q31 0 51 -21q23 -23 29 -57h-2h-121v-1147h-446v78zM1376 -47h367 v1030q0 121 -72 221q152 -111 152 -301v-1028h-447v78z" />
<glyph unicode="N" horiz-adv-x="1349" d="M143 0v1311h236q100 0 141 -78l365 -731v809h321v-1311h-235q-98 0 -142 78l-364 737v-815h-322zM143 -47h369v665l78 -157v-586h-447v78zM508 1311q131 -6 188 -129l144 -291v-197l-262 529q-27 57 -70 88zM870 -27q43 -20 101 -20h282v1358h78v-1436h-280 q-126 0 -181 98z" />
<glyph unicode="O" horiz-adv-x="1247" d="M123 328v655q0 135 96 231.5t232 96.5h346q135 0 231 -96.5t96 -231.5v-655q0 -135 -96 -231.5t-231 -96.5h-346q-137 0 -232 94q-96 97 -96 234zM229 27q102 -74 222 -74h346q154 0 264 110.5t110 264.5v655q0 120 -73 221q152 -102 151 -301v-586q0 -190 -137 -317 q-133 -125 -328 -125h-254q-90 0 -178 39q-84 37 -123 113zM444 334q0 -63 37 -106.5t92 -43.5h101q57 0 94 43t37 107v641q0 66 -39 106q-41 45 -92 45h-101q-53 0 -92 -45q-37 -43 -37 -106v-641zM492 334v641q0 43 24.5 73.5t56.5 30.5h101q66 0 84 -78h-160 q-29 0 -29 -34v-738q-37 4 -55 31q-22 33 -22 74z" />
<glyph unicode="P" horiz-adv-x="1165" d="M143 0v1311h574q137 0 231 -94.5t94 -233.5v-184q0 -135 -96 -231.5t-231 -96.5h-252v-471h-320zM143 -47h367v471h205q157 0 264 111q111 111 111 264v184q0 123 -74 223q152 -96 151 -303v-104q0 -186 -131 -320q-133 -133 -321 -133h-127v-471h-445v78zM463 655h129 q51 0 92 45q39 41 39 107v170q0 61 -39 106q-37 43 -92 43h-129v-471zM510 700v379h82q66 0 84 -78h-88v-301h-78z" />
<glyph unicode="Q" horiz-adv-x="1247" d="M123 328v655q0 135 96 231.5t232 96.5h346q135 0 231 -96.5t96 -231.5v-655q0 -135 -96 -231.5t-231 -96.5h-15v-410h-315v410h-16q-137 0 -232 94q-96 97 -96 234zM229 27q80 -59 191 -72v-66q-134 36 -191 138zM444 334q0 -63 37 -106.5t92 -43.5h101q57 0 94 43 t37 107v641q0 66 -39 106q-41 45 -92 45h-101q-53 0 -92 -45q-37 -43 -37 -106v-641zM467 -457h362v412q143 12 242 119q100 111 100 254v655q0 120 -73 221q152 -102 151 -301v-586q0 -156 -96 -274q-95 -117 -246 -154v-424h-440v78zM492 334v641q0 43 24.5 73.5 t56.5 30.5h101q66 0 84 -78h-160q-29 0 -29 -34v-738q-37 4 -55 31q-22 33 -22 74z" />
<glyph unicode="R" horiz-adv-x="1247" d="M143 0v1311h703q68 0 117 -49q47 -47 47 -115v-461q115 -102 114 -248v-438h-321v442q0 63 -37 107q-39 45 -92 45h-209v-594h-322zM143 -47h367v594h164q31 0 51 -21q23 -23 29 -57h-164v-594h-447v78zM465 778h244v348h-244v-348zM510 823v256h152v-78h-72v-178h-80z M803 -47h366v485q0 158 -114 269v440q0 59 -27 104q106 -55 107 -184v-338q115 -127 114 -287v-567h-446v78z" />
<glyph unicode="S" d="M123 813v260q0 98 69.5 168t167.5 70h621v-185h-539v-360h322q96 0 168 -68q70 -68 69 -168v-292q0 -98 -69.5 -168t-167.5 -70h-621v186h537v389h-320q-98 0 -167.5 70t-69.5 168zM143 -47h621q117 0 201 84q82 82 82 201v292q0 84 -46 156q125 -68 125 -233v-224 q0 -152 -102 -252q-106 -102 -254 -102h-627v78zM203 578q72 -49 157 -50h273v-77h-201q-155 0 -229 127zM487 811v268h539v232h80v-310h-539v-190h-80z" />
<glyph unicode="T" horiz-adv-x="1103" d="M82 1001v78h244v-78h-244zM82 1126v185h899v-185h-287v-1126h-321v1126h-291zM373 -47h366v1126h287v232h80v-310h-287v-1126h-446v78z" />
<glyph unicode="U" horiz-adv-x="1226" d="M143 328v983h322v-977q0 -61 39 -107q37 -43 90 -43h37q55 0 92 43t37 107v977h321v-983q0 -135 -96 -231.5t-231 -96.5h-283q-137 0 -231 94q-97 97 -97 234zM248 27q100 -74 223 -74h283q152 0 262 110.5t110 264.5v983h80v-994q0 -8 1 -15q0 -173 -128 -298 q-133 -129 -315 -129h-225q-205 0 -291 152zM510 334v977h80v-1080q-37 4 -58 31q-22 29 -22 72z" />
<glyph unicode="V" horiz-adv-x="1226" d="M143 0v1311h322v-1127q125 0 211 88t86 220v819h321v-819q0 -205 -143 -348.5t-346 -143.5h-451zM143 -47h451q221 0 379 158q156 156 155 381v819h80v-819q0 -256 -180 -436.5t-434 -180.5h-451v78zM510 236v1075h80v-1047q-43 -22 -80 -28z" />
<glyph unicode="W" horiz-adv-x="1841" d="M143 328v983h322v-996q0 -61 39 -106t90 -45h164v1147h321v-1147h168q51 0 90 45t39 106v996h322v-983q0 -135 -96.5 -231.5t-231.5 -96.5h-899q-135 0 -231.5 96.5t-96.5 231.5zM250 27q101 -74 221 -74h899q156 0 266 110q109 109 109 265v983h78v-989 q0 -186 -129 -316q-131 -131 -318 -131h-835q-211 0 -291 152zM512 315v996h78v-1100q-37 4 -55 31q-23 32 -23 73zM1126 209v1102h78v-1102h-78z" />
<glyph unicode="X" horiz-adv-x="1226" d="M143 0v428q0 88 50 158q47 68 131 100q-84 33 -131 100q-49 70 -50 158v367h322v-451q0 -37 24 -59q27 -23 58 -23h133q33 0 59 23q23 20 23 59v451h321v-367q0 -84 -51 -158q-49 -70 -129 -100q80 -31 129 -100q51 -74 51 -158v-428h-321v512q0 39 -23 59q-27 23 -59 23 h-133q-31 0 -58 -23q-25 -23 -24 -59v-512h-322zM143 -47h367v559q0 35 37 35h133q35 0 35 -35v-43h-125v-594h-447v78zM510 860v451h80v-488h-43q-37 0 -37 37zM762 -47h366v475q0 102 -59 186q-27 37 -70 72q43 35 70 72q59 84 59 186v367h80v-367q0 -117 -69 -217 q-16 -23 -35 -41q14 -14 35 -43q70 -96 69 -215v-553h-446v78z" />
<glyph unicode="Y" horiz-adv-x="1185" d="M102 840v471h322v-465q0 -61 39 -107q37 -43 90 -43h59q53 0 90 43q39 45 39 107v465h322v-471q0 -133 -94 -228q-98 -98 -228 -100v-512h-319v512q-133 4 -227 100q-93 96 -93 228zM209 539q70 -51 166 -70v-57q-111 31 -166 127zM422 -47h364v516q139 16 230 123 q92 111 92 248v471h80v-471q0 -147 -90 -269q-92 -123 -232 -161v-535h-444v78zM469 846v465h80v-568q-37 4 -57 31q-23 29 -23 72z" />
<glyph unicode="Z" horiz-adv-x="1247" d="M-4 -125l45 78h1063v231h80v-309h-1188zM63 0l637 1126h-530v185h997l-641 -1127h533v-184h-996zM170 1001v78h451l-46 -78h-405zM604 229l615 1082h92l-615 -1082h-92z" />
<glyph unicode="[" horiz-adv-x="755" d="M123 -410v1905h530v-184h-209v-1536h209v-185h-530zM123 -457h577v232h78v-310h-655v78zM492 -180v1444h208v231h78v-309h-209v-1366h-77z" />
<glyph unicode="\" horiz-adv-x="1144" d="M45 1311h338l678 -1311h-340zM434 1311h88l744 -1436h-494l-41 78h406z" />
<glyph unicode="]" horiz-adv-x="735" d="M82 -225h209v1536h-209v184h530v-1905h-530v185zM82 -457h575v1952h80v-2030h-655v78zM82 1186v78h162v-78h-162z" />
<glyph unicode="^" horiz-adv-x="960" d="M33 694l51 78h301l94 146l47 -74l-98 -150h-395zM39 819l321 492h236l324 -492h-322l-119 182l-119 -182h-321zM600 772h385l51 -78h-385z" />
<glyph unicode="_" horiz-adv-x="1103" d="M-20 -164h1146v-184h-1146v184z" />
<glyph unicode="`" horiz-adv-x="940" d="M205 1495h201l219 -348h-201z" />
<glyph unicode="a" horiz-adv-x="1103" d="M102 164v266q0 70 47.5 117t116.5 47h398v205h-517v184h650q70 0 117 -47t47 -117v-819h-695q-70 0 -117 47t-47 117zM147 674v78h469v-78h-469zM162 -18q47 -29 104 -29h740v866q0 59 -27 105q106 -61 106 -185v-864h-741q-121 1 -182 107zM399 184h265v226h-265v-226z M444 229v133h172v-77h-92v-56h-80z" />
<glyph unicode="b" d="M123 0v1495h297v-512h254q137 0 231 -94q96 -96 96 -234v-327q0 -135 -96 -231.5t-231 -96.5h-551zM123 -47h551q154 0 264.5 110.5t110.5 264.5v327q0 119 -74 224q152 -96 151 -297v-260q0 -186 -129 -316q-131 -131 -317 -131h-557v78zM420 184h162q53 0 88 41t35 103 v327q0 61 -35 102.5t-88 41.5h-162v-615zM467 229v523h115q31 0 51 -20.5t24 -57.5h-112v-445h-78zM467 1028v467h78v-467h-78z" />
<glyph unicode="c" horiz-adv-x="1042" d="M102 328v327q0 137 95 232q96 96 233 96h326q70 0 117 -47t47 -117v-164h-297v144h-101q-51 0 -88 -41q-35 -37 -35 -103v-327q0 -61 35 -102.5t88 -41.5h336v-184h-428q-139 0 -233.5 94.5t-94.5 233.5zM207 27q100 -74 223 -74h473v231h80v-309h-487q-94 0 -170 39 q-80 41 -119 113zM444 328v327q0 41 23 70q20 27 55 27h53v-82h-26q-25 0 -25 -29v-412h-2q-33 0 -55.5 29t-22.5 70zM623 530v78h342v211q0 59 -27 105q106 -45 106 -179v-215h-421z" />
<glyph unicode="d" d="M102 328v327q0 137 95 232q96 96 233 96h254v512h297v-1495h-551q-139 0 -233.5 94.5t-94.5 233.5zM209 27q101 -74 221 -74h598v1542h78v-1620h-617q-190 0 -280 152zM399 328q0 -61 35 -102.5t88 -41.5h162v615h-162q-51 0 -88 -41q-35 -37 -35 -103v-327zM446 328v327 q0 43 20.5 70t55.5 27h117v-78h-84q-31 0 -31 -33v-412h-2q-33 0 -55 29q-21 27 -21 70z" />
<glyph unicode="e" d="M102 328v327q0 137 95 232q96 96 233 96h244q137 0 231 -94q96 -96 96 -234v-245h-602v-82q0 -61 35 -102.5t88 -41.5h418v-184h-510q-139 0 -233.5 94.5t-94.5 233.5zM207 27q100 -74 223 -74h555v231h80v-309h-567q-201 0 -291 152zM399 594h306v61q0 61 -35 102.5 t-88 41.5h-60q-51 0 -88 -41q-35 -37 -35 -103v-61zM444 328v34h603v293q0 121 -72 224q152 -102 151 -293v-301h-602v-56h-2q-33 0 -55.5 29t-22.5 70zM444 639v16q0 41 23 70q20 27 55 27h60q31 0 51 -20.5t24 -57.5h-96q-35 0 -35 -35h-82z" />
<glyph unicode="f" horiz-adv-x="919" d="M41 672v80h119v-80h-119zM41 799v184h164v348q0 68 49 117q47 47 115 47h405v-184h-272v-328h272v-184h-272v-799h-297v799h-164zM205 -47h344v799h272v231h80v-311h-272v-799h-424v80zM549 1028v236h272v231h80v-311h-272v-156h-80z" />
<glyph unicode="g" d="M102 328v327q0 137 95 232q96 96 233 96h551v-1229q0 -70 -47 -117t-117 -47h-594v185h461v225h-254q-139 0 -233.5 94.5t-94.5 233.5zM207 27q100 -74 223 -74h207v-78h-135q-199 0 -295 152zM223 -457h594q86 0 147.5 61.5t61.5 149.5v1229h80v-1235q0 -123 -82 -203 t-201 -80h-600v78zM399 328q0 -61 35 -102.5t88 -41.5h162v615h-162q-51 0 -88 -41q-35 -37 -35 -103v-327zM444 328v327q0 41 23 70q20 27 55 27h115v-78h-76q-37 0 -37 -41v-404h-2q-33 0 -55.5 29t-22.5 70z" />
<glyph unicode="h" horiz-adv-x="1146" d="M123 0v1495h297v-512h256q139 0 233.5 -94t94.5 -234v-655h-297v655q0 61 -35 102.5t-88 41.5h-164v-799h-297zM123 -47h342v799h119q29 0 49 -20.5t26 -57.5h-114v-799h-422v78zM465 1028v467h80v-467h-80zM707 -47h342v702q0 121 -72 224q152 -98 151 -291v-713h-421 v78z" />
<glyph unicode="i" horiz-adv-x="571" d="M127 0v983h297v-983h-297zM127 -47h342v1030h80v-1108h-422v78zM127 1104v78h342v313h80v-391h-422zM127 1229v266h297v-266h-297z" />
<glyph unicode="j" horiz-adv-x="571" d="M0 -225h127v1208h297v-1229q0 -70 -47 -117t-117 -47h-260v185zM0 -457h260q86 0 147.5 61.5t61.5 149.5v1229h80v-1229q0 -121 -84 -205t-205 -84h-260v78zM127 1104v78h342v313h80v-391h-422zM127 1229v266h297v-266h-297z" />
<glyph unicode="k" horiz-adv-x="1206" d="M123 0v1495h299v-901h100l244 389h336l-258 -410q94 -37 153.5 -120.5t59.5 -186.5v-266h-293v266q0 59 -37 103q-35 41 -86 41h-219v-410h-299zM123 -47h344v409h174q31 0 51.5 -20t24.5 -57h-170v-410h-424v78zM467 639v856h80v-776l-49 -80h-31zM764 -47h338v313 q0 106 -51 191q-55 90 -140 137l246 389h92l-233 -371q166 -135 166 -346v-391h-418v78z" />
<glyph unicode="l" horiz-adv-x="571" d="M127 0v1495h297v-1495h-297zM127 -47h342v1542h80v-1620h-422v78z" />
<glyph unicode="m" horiz-adv-x="1697" d="M123 0v983h1104q137 0 231 -94q96 -96 96 -234v-655h-297v655q0 59 -36 103q-35 41 -86 41h-148v-799h-297v799h-270v-799h-297zM123 -47h344v799h178v-78h-100v-799h-422v78zM690 -47h344v799h101q31 0 51 -20.5t24 -57.5h-98v-799h-422v78zM1257 -47h345v702 q0 119 -74 224q152 -90 151 -291v-713h-422v78z" />
<glyph unicode="n" horiz-adv-x="1144" d="M123 0v983h551q137 0 231 -94q96 -96 96 -234v-655h-296v655q0 61 -35 102.5t-88 41.5h-162v-799h-297zM123 -47h342v799h117q29 0 49 -20.5t24 -57.5h-110v-799h-422v78zM705 -47h342v702q0 121 -72 224q152 -102 151 -291v-713h-421v78z" />
<glyph unicode="o" d="M102 328v327q0 137 95 232q96 96 233 96h244q137 0 231 -94q96 -96 96 -234v-327q0 -135 -96 -231.5t-231 -96.5h-244q-139 0 -233.5 94.5t-94.5 233.5zM207 27q100 -74 223 -74h244q157 0 264 110q109 104 109 265v327q0 121 -72 224q152 -92 151 -283v-268 q0 -188 -131 -322q-133 -131 -321 -131h-185q-196 0 -282 152zM399 328q0 -61 35 -102.5t88 -41.5h60q53 0 88 41t35 103v327q0 61 -35 102.5t-88 41.5h-60q-51 0 -88 -41q-35 -37 -35 -103v-327zM444 328v327q0 41 23 70q20 27 55 27h60q31 0 51 -20.5t24 -57.5h-102 q-31 0 -31 -33v-412h-2q-33 0 -55.5 29t-22.5 70z" />
<glyph unicode="p" d="M123 -410v1393h551q137 0 231 -94q96 -96 96 -234v-327q0 -135 -96 -231.5t-231 -96.5h-254v-410h-297zM123 -457h342v410h209q157 0 264 110q109 109 109 265v327q0 121 -72 224q152 -92 151 -293v-258q0 -184 -133 -322q-131 -131 -319 -131h-129v-410h-422v78z M420 184h162q53 0 88 41t35 103v327q0 61 -35 102.5t-88 41.5h-162v-615zM465 229v523h117q31 0 51 -20.5t24 -57.5h-112v-445h-80z" />
<glyph unicode="q" d="M100 328v327q0 137 95 232q96 96 233 96h225q137 0 232 -94q96 -96 96 -234v-1065h-297v410h-256q-139 0 -233.5 94.5t-94.5 233.5zM205 27q102 -74 223 -74h209v-78h-162q-196 0 -270 152zM397 328q0 -61 35 -102.5t88 -41.5h164v471q0 59 -37 103q-35 41 -86 41h-41 q-51 0 -88 -41q-35 -37 -35 -103v-327zM442 328v327q0 41 23 70q20 27 55 27h41q31 0 51.5 -20.5t24.5 -57.5h-86q-29 0 -29 -33v-412h-2q-33 0 -55.5 29t-22.5 70zM684 -457h342v1112q0 121 -72 224q86 -41 119 -105q33 -66 33 -168v-1141h-422v78z" />
<glyph unicode="r" horiz-adv-x="1064" d="M123 0v983h655q70 0 117 -47t47 -117v-246h-297v226h-225v-799h-297zM123 -47h342v799h133v-78h-53v-799h-422v78zM645 449v77h342v293q0 55 -26 105q106 -61 106 -185v-290h-422z" />
<glyph unicode="s" horiz-adv-x="1001" d="M102 549v270q0 70 47.5 117t116.5 47h578v-184h-445v-230h316q68 0 116 -49q47 -47 48 -114v-242q0 -70 -47.5 -117t-116.5 -47h-578v184h445v201h-316q-70 0 -117 47t-47 117zM137 -47h578q86 0 147.5 61.5t61.5 149.5v242q0 57 -27 104q106 -45 107 -164v-188 q0 -121 -82 -201q-86 -82 -201 -82h-584v78zM162 367q47 -29 104 -29h269v-78h-201q-127 1 -172 107zM444 614v138h445v231h80v-309h-445v-60h-80z" />
<glyph unicode="t" horiz-adv-x="899" d="M61 674v78h117v-78h-117zM61 799v184h164v328h297v-328h254v-184h-254v-615h254v-184h-387q-70 0 -117 47t-47 117v635h-164zM285 -18q47 -29 104 -29h432v231h80v-309h-434q-121 1 -182 107zM567 229v523h254v231h80v-309h-254v-445h-80zM567 1028v283h80v-283h-80z" />
<glyph unicode="u" d="M102 328v655h297v-655q0 -61 35 -102.5t88 -41.5h39q49 0 86 41t37 103v655h297v-655q0 -137 -94 -232q-96 -96 -234 -96h-223q-139 0 -233.5 94.5t-94.5 233.5zM209 27q101 -74 221 -74h223q154 0 264.5 110.5t110.5 264.5v655h78v-655q0 -186 -133 -322 q-128 -131 -304 -131h-16h-143q-154 0 -266 109q-29 31 -35 43zM446 328v655h78v-754h-2q-33 0 -55 29q-21 27 -21 70z" />
<glyph unicode="v" horiz-adv-x="1144" d="M123 0v983h297v-799h162q51 0 88 41q35 37 35 103v655h296v-655q0 -135 -96 -231.5t-231 -96.5h-551zM123 -47h551q154 0 264 110q109 109 109 265v655h79v-655q0 -184 -135 -322q-128 -131 -301 -131h-16h-551v78zM465 229v754h80v-754h-80z" />
<glyph unicode="w" horiz-adv-x="1687" d="M123 328v655h297v-655q0 -59 37 -103q35 -41 86 -41h141v799h297v-799h143q49 0 86 41t37 103v655h297v-655q0 -137 -94 -232q-96 -96 -233 -96h-766q-137 0 -232 94q-96 97 -96 234zM227 27q100 -74 224 -74h766q157 0 264 110q109 109 108 265v655h80v-655 q0 -184 -133 -322q-131 -131 -319 -131h-701q-193 0 -289 152zM465 328v655h80v-754h-2q-33 0 -55.5 29t-22.5 70zM1026 229v754h80v-754h-80z" />
<glyph unicode="x" horiz-adv-x="1144" d="M123 0v260q0 88 47 150q51 68 125 94q-74 27 -125 96q-47 66 -47 150v233h297v-309q0 -39 24 -60q27 -23 58 -22h121q33 0 59 22q23 20 23 60v309h296v-233q0 -84 -49 -152t-123 -94q70 -25 123 -94q49 -66 49 -150v-260h-296v328q0 39 -23 59q-27 23 -59 23h-121 q-31 0 -58 -23q-25 -23 -24 -59v-328h-297zM123 -47h342v375q0 35 37 34h121q35 0 34 -34v-43h-96q-16 0 -16 -17v-393h-422v78zM465 674v309h80v-346h-43q-37 0 -37 37zM705 -47h342v307q0 100 -58 176q-27 41 -65 68q123 92 123 246v233h79v-233q0 -138 -92 -246 q92 -108 92 -246v-383h-421v78z" />
<glyph unicode="y" horiz-adv-x="1144" d="M123 328v655h297v-655q0 -59 37 -103q35 -41 86 -41h162v799h296v-1229q0 -68 -49 -116q-47 -47 -114 -48h-256v185h123v225h-254q-137 0 -232 94q-96 97 -96 234zM227 27q100 -74 224 -74h206v-78h-129q-156 0 -264 109zM465 328v655h80v-754h-2q-33 0 -55.5 29 t-22.5 70zM582 -457h256q86 0 147.5 61.5t61.5 149.5v1229h79v-1229q0 -117 -84 -205q-82 -84 -204 -84h-256v78z" />
<glyph unicode="z" horiz-adv-x="1185" d="M-39 -125l57 78h1065v231h78v-309h-1200zM45 0l571 799h-497v184h977l-566 -799h506v-184h-991zM119 674v78h407l-57 -78h-350zM618 229l533 754h98l-532 -754h-99z" />
<glyph unicode="{" horiz-adv-x="714" d="M0 553l121 121v493q0 137 94 232q96 96 231 96h123v-184q-53 0 -90 -37t-37 -94v-455l-174 -172l174 -174v-473q0 -55 37 -92q39 -39 90 -39v-185h-123q-135 0 -231 97q-94 94 -94 231v514zM223 -383q104 -74 223 -74h170v232h80v-310h-172q-186 0 -301 152zM334 553 l153 154v473q0 35 25 59.5t59 24.5h45v231h80v-309h-96q-33 0 -33 -35v-477l-178 -176zM487 -94v491l80 -78v-497q-37 4 -57 26q-23 27 -23 58z" />
<glyph unicode="|" horiz-adv-x="694" d="M205 -410v1905h284v-1905h-284zM205 -457h330v1952h79v-2030h-409v78z" />
<glyph unicode="}" horiz-adv-x="735" d="M82 -225q53 0 90 37q39 39 39 94v473l174 174l-174 172v455q0 55 -39 94q-37 37 -90 37v184h125q133 0 233 -96q96 -94 97 -232v-493l120 -121l-120 -121v-514q0 -137 -97 -231q-100 -96 -233 -97h-125v185zM82 -457h125q156 0 264 109q111 111 111 266v496l141 139 l55 -55l-116 -117v-471q0 -186 -129.5 -315.5t-317.5 -129.5h-133v78zM82 1186v78q31 0 57 -23q23 -20 27 -55h-84zM510 1389q152 -90 152 -281v-494l-80 78v475q0 122 -72 222z" />
<glyph unicode="~" horiz-adv-x="1042" d="M102 346v80h338q80 0 139.5 53t69.5 131h316v230h79v-310h-335q-33 -82 -107 -133q-72 -51 -162 -51h-338zM102 471v184h318v21q0 68 49 117q47 47 115 47h336v-185h-316v-20q0 -68 -49 -117q-47 -47 -115 -47h-338z" />
<glyph unicode="&#xa2;" horiz-adv-x="940" d="M82 492v163q0 125 84 219q82 90 209 107v166h270v-164h172v-184h-315q-49 0 -86 -41t-37 -103v-163q0 -59 37 -103q35 -41 86 -41h315v-184h-172v-164h-270v164q-127 16 -209 106q-84 95 -84 222zM186 188q59 -45 142 -63v-51q-93 38 -142 114zM375 -45h315v164h172v229 h80v-309h-172v-164h-395v80zM424 492v163q0 41 22.5 70t55.5 29h360v229h80v-309h-401q-20 0 -28.5 -8.5t-8.5 -32.5v-219v-19h-2q-33 0 -55.5 29t-22.5 68zM690 1030v117h80v-117h-80z" />
<glyph unicode="&#xa3;" horiz-adv-x="1024" d="M82 203v78h862v231h80v-309h-942zM82 328v184h39q51 0 88 41q35 37 35 102v72h-162v184h162v72q0 137 96 234q94 94 231 94h248v-185h-155q-49 0 -86 -41t-37 -102v-72h276v-184h-276v-72q0 -78 -33 -143h391v-184h-817zM82 602v78h115v-25q0 -33 -13 -53h-102zM573 557 q12 49 13 98v25h276v231h80v-309h-276q0 -27 -7 -45h-86zM586 956v27q0 39 22.5 67.5t55.5 28.5h200v232h80v-310h-237q-41 0 -41 -45h-80z" />
<glyph unicode="&#xa5;" horiz-adv-x="1308" d="M41 1311h328l231 -400l231 400h328l-305 -492h166v-184h-270v-94h270v-185h-270v-356h-297v356h-273v185h273v94h-273v184h168zM180 231v78h226v-78h-226zM422 1311h90l133 -230l-45 -77zM453 -47h342v356h270v510h80v-588h-271v-356h-421v78zM936 864l278 447h95 l-279 -447h-94z" />
<glyph unicode="&#xa9;" horiz-adv-x="1536" d="M123 492v327q0 201 143 348q141 143 346 144h287q205 0 348.5 -143.5t143.5 -348.5v-327q0 -203 -144 -347q-145 -145 -348 -145h-287q-201 0 -346 145q-143 144 -143 347zM274 74q150 -121 338 -121h287q223 0 381 158q156 156 156 381v327q0 195 -119 338 q199 -141 199 -418v-247q0 -254 -181 -435q-182 -182 -436 -182h-209q-254 0 -416 199zM324 485q0 -119 88 -200q86 -80 211 -80h266q125 0 211 80t86 200v340q0 119 -86 199t-211 80h-266q-125 0 -211 -80q-88 -82 -88 -199v-340zM469 492v327q0 66 47 117q45 47 117 47 h389v-178h-301v-299h301v-178h-389q-68 0 -117 49q-47 47 -47 115z" />
<glyph unicode="&#xad;" horiz-adv-x="714" d="M102 346v78h535v252h80v-330h-615zM102 471v205h490v-205h-490z" />
<glyph unicode="&#xae;" horiz-adv-x="1144" d="M115 1090q0 186 131 317t317 131q188 0 319.5 -131t131.5 -317q0 -188 -131 -319.5t-320 -131.5q-186 0 -317 131.5t-131 319.5zM256 700q139 -109 307 -108q207 0 352 147q145 150 146 351q0 170 -109 307q186 -147 187 -385q0 -201 -146 -350q-144 -147 -350 -148 q-240 0 -387 186zM322 825h149v174h215v-174h152v181q0 37 -27 69q-20 27 -61 37v145q0 45 -31 76q-33 33 -78 33h-319v-541zM471 1114v137h125v-137h-125z" />
<glyph unicode="&#xb4;" horiz-adv-x="940" d="M317 1147l220 348h200l-219 -348h-201z" />
<glyph unicode="&#x2000;" horiz-adv-x="768" />
<glyph unicode="&#x2001;" horiz-adv-x="1536" />
<glyph unicode="&#x2002;" horiz-adv-x="768" />
<glyph unicode="&#x2003;" horiz-adv-x="1536" />
<glyph unicode="&#x2004;" horiz-adv-x="512" />
<glyph unicode="&#x2005;" horiz-adv-x="382" />
<glyph unicode="&#x2006;" horiz-adv-x="256" />
<glyph unicode="&#x2007;" horiz-adv-x="256" />
<glyph unicode="&#x2008;" horiz-adv-x="190" />
<glyph unicode="&#x2009;" horiz-adv-x="305" />
<glyph unicode="&#x200a;" horiz-adv-x="83" />
<glyph unicode="&#x2010;" horiz-adv-x="714" d="M102 346v78h535v252h80v-330h-615zM102 471v205h490v-205h-490z" />
<glyph unicode="&#x2011;" horiz-adv-x="714" d="M102 346v78h535v252h80v-330h-615zM102 471v205h490v-205h-490z" />
<glyph unicode="&#x2012;" horiz-adv-x="714" d="M102 346v78h535v252h80v-330h-615zM102 471v205h490v-205h-490z" />
<glyph unicode="&#x2013;" horiz-adv-x="1144" d="M102 346v78h945v252h79v-330h-1024zM102 471v205h899v-205h-899z" />
<glyph unicode="&#x2014;" horiz-adv-x="1656" d="M102 346v78h1477v252h80v-330h-1557zM102 471v205h1432v-205h-1432z" />
<glyph unicode="&#x2018;" horiz-adv-x="612" d="M41 1495h281l163 -512h-282zM223 936h326l-178 559h82l202 -637h-407z" />
<glyph unicode="&#x2019;" horiz-adv-x="612" d="M82 858l24 78h330l176 559h84l-200 -637h-414zM121 983l164 512h280l-162 -512h-282z" />
<glyph unicode="&#x201c;" horiz-adv-x="1083" d="M41 1495h285l163 -512h-286zM223 936h330l-178 559h82l202 -637h-411zM506 1495h285l163 -512h-286zM688 936h330l-178 559h82l204 -637h-413z" />
<glyph unicode="&#x201d;" horiz-adv-x="1083" d="M82 858l24 78h334l176 559h84l-200 -637h-418zM121 983l164 512h284l-161 -512h-287zM549 858l24 78h334l176 559h84l-200 -637h-418zM588 983l166 512h282l-162 -512h-286z" />
<glyph unicode="&#x2022;" horiz-adv-x="612" d="M143 367v77h371v375h80v-452h-451zM143 492v327h326v-327h-326z" />
<glyph unicode="&#x2026;" horiz-adv-x="1615" d="M143 0v287h326v-287h-326zM143 -47h371v334h80v-412h-451v78zM645 0v287h326v-287h-326zM645 -47h371v334h80v-412h-451v78zM1147 0v287h326v-287h-326zM1147 -47h371v334h79v-412h-450v78z" />
<glyph unicode="&#x202f;" horiz-adv-x="305" />
<glyph unicode="&#x205f;" horiz-adv-x="382" />
<glyph unicode="&#x20ac;" d="M82 449v77h217q20 -47 41 -77h-258zM82 573v185h242v123h-242v184h252q27 106 115 176t202 70h350v-185h-258q-49 0 -85.5 -41t-36.5 -102v-74h380v-184h-380v-70q0 -61 36.5 -102t85.5 -41h258v-184h-350q-115 0 -202 69q-90 72 -115 176h-252zM428 354q100 -74 223 -73 h396v231h79v-309h-417q-195 -1 -281 151zM666 655v23h381v231h79v-309h-381v-43h-2q-33 0 -55 28.5t-22 69.5zM666 954v29q0 39 22.5 67.5t54.5 28.5h304v232h79v-310h-342q-20 0 -30 -10q-8 -8 -9 -37h-79z" />
<glyph unicode="&#x2122;" horiz-adv-x="1538" d="M61 1182v129h459v-129h-133v-445h-192v445h-134zM618 737v574h623q90 0 153.5 -63.5t63.5 -153.5v-357h-194v391q0 74 -66 74h-63v-465h-193v465h-129v-465h-195z" />
<glyph unicode="&#xe000;" horiz-adv-x="985" d="M0 985h985v-985h-985v985z" />
<glyph unicode="&#xfb01;" horiz-adv-x="1288" d="M41 672v80h119v-80h-119zM41 799v184h164v348q0 68 49 117q47 47 115 47h774v-184h-641v-328h295v-184h-295v-799h-297v799h-164zM205 -47h344v799h248v-80h-168v-799h-424v80zM549 1028v236h641v231h80v-311h-641v-156h-80zM842 0v983h297v-983h-297zM842 -47h342v1030 h80v-1108h-422v78z" />
<glyph unicode="&#xfb02;" horiz-adv-x="1390" d="M41 672v80h119v-80h-119zM41 799v184h164v348q0 68 49 117q47 47 115 47h405v-184h-272v-328h272v-184h-272v-799h-297v799h-164zM205 -47h344v799h272v231h80v-311h-272v-799h-424v80zM549 1028v236h272v231h80v-311h-272v-156h-80zM950 0v1495h297v-1495h-297zM950 -47 h342v1542h80v-1620h-422v78z" />
<glyph unicode="&#xfb03;" horiz-adv-x="2025" d="M41 672v80h119v-80h-119zM41 799v184h164v348q0 68 49 117q47 47 115 47h409v-184h-276v-328h446v348q0 70 47 117t117 47h772v-184h-639v-328h293v-184h-293v-799h-297v799h-446v-799h-297v799h-164zM205 -47h344v799h352v-80h-272v-799h-424v80zM549 1028v236h272v231 h80v-311h-272v-156h-80zM948 -47h344v799h246v-80h-166v-799h-424v80zM1292 1028v236h635v231h80v-311h-635v-156h-80zM1585 0v983h297v-983h-297zM1585 -47h342v1030h80v-1108h-422v78z" />
<glyph unicode="&#xfb04;" horiz-adv-x="2107" d="M41 672v80h119v-80h-119zM41 799v184h164v348q0 68 49 117q47 47 115 47h399v-184h-266v-328h434v348q0 70 47 117t117 47h401v-184h-268v-328h268v-184h-268v-799h-297v799h-434v-799h-297v799h-164zM205 -47h344v799h342v-80h-262v-799h-424v80zM549 1028v236h262v231 h80v-311h-262v-156h-80zM936 -47h344v799h264v231h80v-311h-264v-799h-424v80zM1280 1028v236h264v231h80v-311h-264v-156h-80zM1667 0v1495h297v-1495h-297zM1667 -47h342v1542h80v-1620h-422v78z" />
<glyph horiz-adv-x="448" />
</font>
</defs>
</svg>
